<?xml version="1.0" encoding="UTF-8"?><!DOCTYPE svg PUBLIC "-//W3C//DTD SVG 1.1//EN" "http://www.w3.org/Graphics/SVG/1.1/DTD/svg11.dtd"><svg xmlns="http://www.w3.org/2000/svg"><symbol id="icon-32x32" viewBox="0 0 90 22">
    <path fill-rule="evenodd" clip-rule="evenodd" d="M15.882 15.868v2.475h5.776v1.234h-5.776v.619h6.353v-2.472H16.46v-1.237h5.775v-.619h-6.353z"/>
    <path fill-rule="evenodd" clip-rule="evenodd" d="M38.47 9.522H22.794V7.141H38.47V0h-18v2.381h15.678V4.76H20.47v7.14h18V9.523z"/>
    <path fill-rule="evenodd" clip-rule="evenodd" d="M69.53 11.9V0h-18v2.381h15.677V4.76H51.53V7.14h15.678v2.381H51.53v2.379h18z"/>
    <path d="M24 15.868h-.706v4.328H24v-4.328z"/>
    <path fill-rule="evenodd" clip-rule="evenodd" d="M5.776 15.905H0v4.284h6.353v-6.124h-.577v1.84zM.577 19.583h5.199v-3.065H.577v3.065z"/>
    <path fill-rule="evenodd" clip-rule="evenodd" d="M18.353 11.9V0h-18v2.381h15.678V4.76H.353V7.14h15.678v2.381H.353v2.379h18z"/>
    <path fill-rule="evenodd" clip-rule="evenodd" d="M7.765 15.868v4.32h7.058v-.608H8.352v-1.237h6.471v-2.475H7.765zm.587 1.856h5.881v-1.237H8.352v1.237z"/>
    <path fill-rule="evenodd" clip-rule="evenodd" d="M72 0v2.381h15.678V4.76H72v7.14h18V9.523H74.322V7.141H90V0H72z"/>
    <path fill-rule="evenodd" clip-rule="evenodd" d="M25.412 15.868v4.292h5.775v1.226h-5.775V22h6.353v-6.132h-6.353zm.577 3.68h5.198v-3.066H25.99v3.067z"/>
    <path d="M82.235 15.868h-.706v4.328h.706v-4.328z"/>
    <path fill-rule="evenodd" clip-rule="evenodd" d="M83.647 20.188H90v-4.32h-6.353v4.32zm.577-.616h5.199v-3.106h-5.199v3.106z"/>
    <path fill-rule="evenodd" clip-rule="evenodd" d="M72.469 19.577h-5.882v-3.709H66v4.328h7.059v-4.328h-.59v3.71z"/>
    <path fill-rule="evenodd" clip-rule="evenodd" d="M79.893 15.905h-5.776v4.284h6.353v-6.124h-.577v1.84zm-5.198 3.678h5.198v-3.065h-5.198v3.065z"/>
    <path fill-rule="evenodd" clip-rule="evenodd" d="M59.165 14.065h-.577v6.131h6.353v-.61h-5.776v-3.068h5.776v-.613h-5.776v-1.84z"/>
    <path fill-rule="evenodd" clip-rule="evenodd" d="M32.824 15.868v4.328h.577v-3.71h5.198v3.71h.578v-4.328h-6.353z"/>
    <path fill-rule="evenodd" clip-rule="evenodd" d="M46.94 2.886l-1.764 2.042-1.765-2.042h-1.764l2.647 3.064-2.647 3.067h1.764l1.765-2.044 1.765 2.044h1.764L46.058 5.95l2.647-3.064h-1.764z"/>
    <path fill-rule="evenodd" clip-rule="evenodd" d="M50.118 15.868v2.475h6.469v1.234h-6.47v.619h7.06v-2.472h-6.472v-1.237h6.471v-.619h-7.058z"/>
</symbol><symbol id="icon-arrow" viewBox="0 0 16 16">
    <path d="M12 10L8 6l-4 4" stroke-linecap="round" stroke-linejoin="round"/>
</symbol><symbol id="icon-cart" viewBox="0 0 24 24">
    <path d="M9 22a1 1 0 1 0 0-2 1 1 0 0 0 0 2z" stroke-width="2" stroke-linecap="round" stroke-linejoin="round"/>
    <path d="M20 22a1 1 0 1 0 0-2 1 1 0 0 0 0 2z" stroke-width="2" stroke-linecap="round" stroke-linejoin="round"/>
    <path d="M1 1h4l2.68 13.39a2 2 0 0 0 2 1.61h9.72a2 2 0 0 0 2-1.61L23 6H6" stroke-width="2" stroke-linecap="round" stroke-linejoin="round"/>
</symbol><symbol id="icon-chain" viewBox="0 0 20 20">
    <path d="M3.518 16.481A4.153 4.153 0 0 0 6.464 17.7a4.155 4.155 0 0 0 2.947-1.219l2.357-2.357-1.179-1.179-2.357 2.358a2.506 2.506 0 0 1-3.535 0 2.504 2.504 0 0 1 0-3.536L7.054 9.41 5.876 8.232 3.518 10.59a4.172 4.172 0 0 0 0 5.892zm12.964-7.07a4.173 4.173 0 0 0 0-5.893 4.172 4.172 0 0 0-5.893 0L8.232 5.875l1.179 1.179 2.357-2.358a2.506 2.506 0 0 1 3.535 0c.974.975.974 2.561 0 3.536l-2.357 2.357 1.178 1.178 2.358-2.357z"/>
    <path d="M7.053 14.125l-1.179-1.178 7.072-7.072 1.179 1.178-7.072 7.072z"/>
</symbol><symbol id="icon-close" viewBox="0 0 33 33">
    <path d="M24.75 8.25l-16.5 16.5" stroke-width="2" stroke-linecap="round" stroke-linejoin="round"/>
    <path d="M8.25 8.25l16.5 16.5" stroke-width="2" stroke-linecap="round" stroke-linejoin="round"/>
</symbol><symbol id="icon-dislike" viewBox="0 0 20 20">
    <path d="M16.667 2.5H5.577c-.69 0-1.317.434-1.56 1.082L1.719 9.707a.833.833 0 0 0-.052.293v1.667c0 .919.747 1.666 1.666 1.666H8.01l-.935 2.806a1.67 1.67 0 0 0 .228 1.502c.314.433.819.692 1.354.692H10c.248 0 .482-.11.64-.3l3.918-4.7h2.109c.919 0 1.666-.747 1.666-1.666v-7.5c0-.92-.747-1.667-1.666-1.667zM9.609 16.667h-.954l1.302-3.904a.83.83 0 0 0-.79-1.096H3.333V10.15l2.245-5.984h7.755v8.031L9.61 16.667zm5.391-5v-7.5h1.667v7.5H15z"/>
</symbol><symbol id="icon-grid" viewBox="0 0 24 24">
    <path d="M4 11h6a1 1 0 0 0 1-1V4a1 1 0 0 0-1-1H4a1 1 0 0 0-1 1v6a1 1 0 0 0 1 1zm10 0h6a1 1 0 0 0 1-1V4a1 1 0 0 0-1-1h-6a1 1 0 0 0-1 1v6a1 1 0 0 0 1 1zM4 21h6a1 1 0 0 0 1-1v-6a1 1 0 0 0-1-1H4a1 1 0 0 0-1 1v6a1 1 0 0 0 1 1zm10 0h6a1 1 0 0 0 1-1v-6a1 1 0 0 0-1-1h-6a1 1 0 0 0-1 1v6a1 1 0 0 0 1 1z"/>
</symbol><symbol id="icon-like" viewBox="0 0 20 20">
    <path d="M16.667 6.667H11.99l.936-2.806a1.673 1.673 0 0 0-.23-1.502 1.674 1.674 0 0 0-1.353-.692H10a.836.836 0 0 0-.64.3l-3.917 4.7h-2.11c-.919 0-1.666.747-1.666 1.667v7.5c0 .919.747 1.666 1.666 1.666h11.09c.69 0 1.317-.434 1.56-1.081l2.298-6.126a.833.833 0 0 0 .052-.293V8.334c0-.92-.747-1.667-1.666-1.667zM3.333 8.334H5v7.5H3.333v-7.5zm13.334 1.515l-2.244 5.985H6.667V7.802l3.723-4.468h.955l-1.302 3.902a.831.831 0 0 0 .79 1.098h5.834v1.515z"/>
</symbol><symbol id="icon-message" viewBox="0 0 20 20">
    <path d="M6.667 1.667h6.666c2.758 0 5 2.242 5 5V17.5c0 .461-.372.834-.833.834H6.667c-2.758 0-5-2.243-5-5V6.667c0-2.758 2.242-5 5-5zM3.333 13.334a3.337 3.337 0 0 0 3.334 3.333h10v-10a3.337 3.337 0 0 0-3.334-3.333H6.667a3.337 3.337 0 0 0-3.334 3.333v6.667z"/>
    <path d="M14.167 7.5H5.833v1.667h8.334V7.5zm-2.5 3.333H5.833V12.5h5.834v-1.667z"/>
</symbol><symbol id="icon-mobile-menu-button" viewBox="0 0 32 32">
    <path d="M4 16h24" stroke-width="2" stroke-linecap="round" stroke-linejoin="round"/>
    <path d="M4 8h24" stroke-width="2" stroke-linecap="round" stroke-linejoin="round"/>
    <path d="M4 24h24" stroke-width="2" stroke-linecap="round" stroke-linejoin="round"/>
</symbol><symbol id="icon-search" viewBox="0 0 33 33">
    <path d="M15.125 26.125c6.075 0 11-4.925 11-11s-4.925-11-11-11-11 4.925-11 11 4.925 11 11 11z" stroke-width="2" stroke-linecap="round" stroke-linejoin="round"/>
    <path d="M28.876 28.875l-5.982-5.981" stroke-width="2" stroke-linecap="round" stroke-linejoin="round"/>
</symbol><symbol id="icon-slider-arrow" viewBox="0 0 16 16">
    <path d="M6 12l4-4-4-4" stroke-linecap="round" stroke-linejoin="round"/>
</symbol><symbol id="icon-user" viewBox="0 0 24 24">
    <path d="M20 21v-2a4 4 0 0 0-4-4H8a4 4 0 0 0-4 4v2" stroke-width="2" stroke-linecap="round" stroke-linejoin="round"/>
    <path d="M12 11a4 4 0 1 0 0-8 4 4 0 0 0 0 8z" stroke-width="2" stroke-linecap="round" stroke-linejoin="round"/>
</symbol></svg>