<svg width="90" height="22" viewBox="0 0 90 22" fill="none" xmlns="http://www.w3.org/2000/svg">
<path fill-rule="evenodd" clip-rule="evenodd" d="M15.8823 15.8682V18.3425H21.6579V19.5771H15.8823V20.1957H22.2353V17.7239H16.4596V16.4868H22.2353V15.8682H15.8823Z" fill="black"/>
<path fill-rule="evenodd" clip-rule="evenodd" d="M38.4707 9.52214H22.7925V7.14096H38.4707V0H20.4707V2.38118H36.1488V4.75978H20.4707V11.9007H38.4707V9.52214Z" fill="black"/>
<path fill-rule="evenodd" clip-rule="evenodd" d="M69.5293 11.9007V0H51.5293V2.38118H67.2074V4.75978H51.5293V7.14096H67.2074V9.52214H51.5293V11.9007H69.5293Z" fill="black"/>
<path d="M23.9998 15.8682H23.2939V20.1957H23.9998V15.8682Z" fill="black"/>
<path fill-rule="evenodd" clip-rule="evenodd" d="M5.77562 15.9049H0V20.1885H6.35293V14.0647H5.77562V15.9049ZM0.57731 19.5828H5.77562V16.5184H0.57731V19.5828Z" fill="black"/>
<path fill-rule="evenodd" clip-rule="evenodd" d="M18.353 11.9007V0H0.353027V2.38118H16.0312V4.75978H0.353027V7.14096H16.0312V9.52214H0.353027V11.9007H18.353Z" fill="black"/>
<path fill-rule="evenodd" clip-rule="evenodd" d="M7.76465 15.8682V20.1879H14.8235V19.5797H8.35204V18.3425H14.8235V15.8682H7.76465ZM8.35204 17.7239H14.2335V16.4868H8.35204V17.7239Z" fill="black"/>
<path fill-rule="evenodd" clip-rule="evenodd" d="M72 0V2.38118H87.6781V4.75978H72V11.9007H90V9.52214H74.3218V7.14096H90V0H72Z" fill="black"/>
<path fill-rule="evenodd" clip-rule="evenodd" d="M25.4116 15.8682V20.1595H31.1872V21.3863H25.4116V21.9997H31.7646V15.8682H25.4116ZM25.9889 19.5486H31.1872V16.4816H25.9889V19.5486Z" fill="black"/>
<path d="M82.2352 15.8682H81.5293V20.1957H82.2352V15.8682Z" fill="black"/>
<path fill-rule="evenodd" clip-rule="evenodd" d="M83.647 20.1879H89.9999V15.8682H83.647V20.1879ZM84.2243 19.5719H89.4226V16.466H84.2243V19.5719Z" fill="black"/>
<path fill-rule="evenodd" clip-rule="evenodd" d="M72.4689 19.5771H66.5874V15.8682H66V20.1957H73.0588V15.8682H72.4689V19.5771Z" fill="black"/>
<path fill-rule="evenodd" clip-rule="evenodd" d="M79.8928 15.9049H74.1172V20.1885H80.4701V14.0647H79.8928V15.9049ZM74.6945 19.5828H79.8928V16.5184H74.6945V19.5828Z" fill="black"/>
<path fill-rule="evenodd" clip-rule="evenodd" d="M59.1652 14.0645H58.5879V20.196H59.1652H64.9408V19.5852H59.1652V16.5181H64.9408V15.9047H59.1652V14.0645Z" fill="black"/>
<path fill-rule="evenodd" clip-rule="evenodd" d="M32.8237 15.8682V20.1957H33.401V16.4868H38.5994V20.1957H39.1767V15.8682H32.8237Z" fill="black"/>
<path fill-rule="evenodd" clip-rule="evenodd" d="M46.9406 2.88574L45.1759 4.92787L43.4112 2.88574H41.6465L44.2935 5.95022L41.6465 9.01729H43.4112L45.1759 6.97258L46.9406 9.01729H48.7053L46.0582 5.95022L48.7053 2.88574H46.9406Z" fill="black"/>
<path fill-rule="evenodd" clip-rule="evenodd" d="M50.1177 15.8682V18.3425H56.5866V19.5771H50.1177V20.1957H57.1765V17.7239H50.7051V16.4868H57.1765V15.8682H50.1177Z" fill="black"/>
</svg>
