<svg width="32" height="29" viewBox="0 0 32 29" fill="none" xmlns="http://www.w3.org/2000/svg">
<path d="M22.4049 26.982L23.3333 27.6536L23.3651 27.6781L23.4249 27.7025L24.1023 28.0322L24.0824 27.9834C24.7239 28.2521 25.3973 28.4433 26.1305 28.4433C29.374 28.4433 32 25.6551 32 22.2156C32 18.7762 29.3702 15.988 26.1305 15.988C25.0905 15.988 24.1302 16.2973 23.2815 16.802C23.5724 13.4725 25.2141 8.61648 31.231 3.6629C32.0717 2.97094 32.2272 1.68474 31.5736 0.793247C31.1911 0.268164 30.6213 -0.000526428 30.0474 -0.000526428C29.6331 -0.000526428 29.2186 0.141888 28.864 0.426842C21.4804 6.51615 19.6355 12.7681 19.3884 16.9443C18.966 22.2847 20.5519 25.0932 22.0023 26.5585L22.4049 26.982Z" fill="#333333"/>
<path d="M2.69117 26.5588L3.09763 26.9821L4.02213 27.6537L4.05398 27.6781L4.11779 27.7026L4.79519 28.0323L4.77526 27.9835C5.41679 28.2522 6.09419 28.4434 6.82737 28.4434C10.0669 28.4434 12.6888 25.6552 12.6888 22.2157C12.6888 18.7763 10.0669 15.9881 6.81935 15.9881C5.77937 15.9881 4.81901 16.2974 3.97035 16.8021C4.25721 13.4726 5.89898 8.61658 11.9158 3.66299C12.7606 2.97103 12.912 1.68483 12.2584 0.793339C11.8759 0.268255 11.3061 -0.000434875 10.7323 -0.000434875C10.3179 -0.000434875 9.90342 0.141979 9.54886 0.426933C2.16121 6.51624 0.32035 12.7682 0.0692263 16.9444C-0.353158 22.2849 1.2327 25.0935 2.69117 26.5588Z" fill="#333333"/>
</svg>
