<svg width="20" height="20" viewBox="0 0 20 20" fill="none" xmlns="http://www.w3.org/2000/svg">
<path d="M3.5183 16.4813C4.3308 17.2938 5.39746 17.6996 6.46413 17.6996C7.53163 17.6988 8.59913 17.2938 9.4108 16.4813L11.7675 14.1238L10.5891 12.9454L8.23246 15.3029C7.2583 16.2754 5.67246 16.2771 4.69663 15.3029C3.72246 14.3279 3.72246 12.7421 4.69663 11.7671L7.05413 9.41043L5.8758 8.2321L3.5183 10.5888C1.89413 12.2129 1.89413 14.8571 3.5183 16.4813ZM16.4816 9.41043C18.105 7.78626 18.105 5.1421 16.4816 3.51793C14.8566 1.89293 12.2125 1.8946 10.5891 3.51793L8.23246 5.87543L9.4108 7.05376L11.7675 4.69626C12.7425 3.72376 14.3283 3.7221 15.3033 4.69626C16.2775 5.67126 16.2775 7.2571 15.3033 8.2321L12.9458 10.5888L14.1241 11.7671L16.4816 9.41043Z" fill="#3C78D8"/>
<path d="M7.05298 14.125L5.87449 12.9465L12.9463 5.87494L14.1248 7.05347L7.05298 14.125Z" fill="#3C78D8"/>
</svg>
