<svg width="20" height="20" viewBox="0 0 20 20" fill="none" xmlns="http://www.w3.org/2000/svg">
<path d="M16.6667 2.5H14.1667H5.57755C4.88672 2.5 4.26005 2.93417 4.01672 3.58167L1.71922 9.7075C1.68422 9.80083 1.66672 9.9 1.66672 10V11.6667C1.66672 12.5858 2.41422 13.3333 3.33338 13.3333H8.01005L7.07505 16.1392C6.90588 16.6458 6.99088 17.2075 7.30338 17.6408C7.61672 18.0742 8.12172 18.3333 8.65672 18.3333H10.0001C10.2476 18.3333 10.4817 18.2233 10.6409 18.0333L14.5576 13.3333H16.6667C17.5859 13.3333 18.3334 12.5858 18.3334 11.6667V4.16667C18.3334 3.2475 17.5859 2.5 16.6667 2.5ZM9.60922 16.6667H8.65505L9.95672 12.7633C10.0426 12.5092 9.99922 12.23 9.84255 12.0125C9.68588 11.795 9.43422 11.6667 9.16672 11.6667H3.33338V10.1508L5.57755 4.16667H13.3334V12.1983L9.60922 16.6667ZM15.0001 11.6667V4.16667H16.6667L16.6676 11.6667H15.0001Z" fill="#3C78D8"/>
</svg>
