<svg width="20" height="20" viewBox="0 0 20 20" fill="none" xmlns="http://www.w3.org/2000/svg">
<path d="M16.6667 6.66699H11.9901L12.9259 3.86116C13.0942 3.35449 13.0092 2.79283 12.6967 2.35949C12.3842 1.92616 11.8776 1.66699 11.3434 1.66699H10.0001C9.75255 1.66699 9.51838 1.77699 9.35922 1.96699L5.44255 6.66699H3.33338C2.41422 6.66699 1.66672 7.41449 1.66672 8.33366V15.8337C1.66672 16.7528 2.41422 17.5003 3.33338 17.5003H5.83338H14.4226C15.1134 17.5003 15.7401 17.0662 15.9834 16.4187L18.2809 10.2928C18.3159 10.1995 18.3334 10.1003 18.3334 10.0003V8.33366C18.3334 7.41449 17.5859 6.66699 16.6667 6.66699ZM3.33338 8.33366H5.00005V15.8337H3.33338V8.33366ZM16.6667 9.84949L14.4226 15.8337H6.66672V7.80199L10.3901 3.33366H11.3451L10.0434 7.23616C9.95755 7.49033 10.0009 7.76949 10.1576 7.98699C10.3142 8.20533 10.5659 8.33366 10.8334 8.33366H16.6667V9.84949Z" fill="#3C78D8"/>
</svg>
