<svg width="20" height="20" viewBox="0 0 20 20" fill="none" xmlns="http://www.w3.org/2000/svg">
<path d="M6.66671 1.66699H13.3334C16.0909 1.66699 18.3334 3.90949 18.3334 6.66699V17.5003C18.3334 17.9612 17.9609 18.3337 17.5 18.3337H6.66671C3.90921 18.3337 1.66671 16.0912 1.66671 13.3337V6.66699C1.66671 3.90949 3.90921 1.66699 6.66671 1.66699ZM3.33337 13.3337C3.33337 15.172 4.82837 16.667 6.66671 16.667H16.6667V6.66699C16.6667 4.82866 15.1717 3.33366 13.3334 3.33366H6.66671C4.82837 3.33366 3.33337 4.82866 3.33337 6.66699V13.3337Z" fill="#3C78D8"/>
<path d="M14.1666 7.5H5.83329V9.16667H14.1666V7.5ZM11.6666 10.8333H5.83329V12.5H11.6666V10.8333Z" fill="#3C78D8"/>
</svg>
